<svg width="16" height="17" viewBox="0 0 16 17" fill="none" xmlns="http://www.w3.org/2000/svg">
<path d="M3 11.75C3 12.2919 3.34312 12.75 3.75 12.75C3.8369 12.7472 3.92232 12.7267 4.00107 12.6898C4.07982 12.653 4.15026 12.6005 4.20813 12.5356C4.34571 12.3919 4.53474 12.3087 4.73365 12.3044C4.93255 12.3001 5.12504 12.3749 5.26875 12.5125C5.41246 12.6501 5.49564 12.8391 5.49998 13.038C5.50431 13.2369 5.42946 13.4294 5.29187 13.5731C5.09455 13.785 4.85599 13.9544 4.59084 14.0708C4.3257 14.1872 4.03956 14.2482 3.75 14.25C2.50937 14.25 1.5 13.125 1.5 11.75C1.5 10.375 2.50937 9.25 3.75 9.25C4.03956 9.25182 4.3257 9.3128 4.59084 9.42919C4.85599 9.54559 5.09455 9.71495 5.29187 9.92688C5.42946 10.0706 5.50431 10.2631 5.49998 10.462C5.49564 10.6609 5.41246 10.8499 5.26875 10.9875C5.12504 11.1251 4.93255 11.1999 4.73365 11.1956C4.53474 11.1913 4.34571 11.1081 4.20813 10.9644C4.15026 10.8995 4.07982 10.847 4.00107 10.8102C3.92232 10.7733 3.8369 10.7528 3.75 10.75C3.34312 10.75 3 11.2069 3 11.75ZM9.09437 11.3931C8.77375 11.1775 8.38625 11.0656 8.04438 10.9669C7.87687 10.9216 7.71185 10.8676 7.55 10.805C7.70312 10.7313 8.15687 10.7238 8.55437 10.8256C8.74674 10.8764 8.95141 10.8487 9.12336 10.7486C9.2953 10.6485 9.42044 10.4842 9.47125 10.2919C9.52205 10.0995 9.49436 9.89484 9.39427 9.72289C9.29417 9.55095 9.12986 9.42581 8.9375 9.375C8.69139 9.31436 8.44042 9.27546 8.1875 9.25875C7.56687 9.2175 7.0625 9.32625 6.68125 9.58187C6.49537 9.70666 6.33919 9.87076 6.22373 10.0626C6.10828 10.2544 6.03638 10.4692 6.01312 10.6919C5.94438 11.2381 6.16813 11.7087 6.645 12.0162C6.94375 12.2094 7.2925 12.31 7.62937 12.4075C7.81687 12.4631 8.12562 12.5513 8.24687 12.6281C8.2451 12.6436 8.24044 12.6587 8.23312 12.6725C8.14812 12.7694 7.635 12.7844 7.20875 12.6687C7.01894 12.6206 6.81782 12.6486 6.64838 12.7468C6.47893 12.8449 6.35461 13.0055 6.30197 13.1941C6.24932 13.3827 6.27254 13.5845 6.36665 13.7562C6.46077 13.9279 6.61831 14.056 6.80562 14.1131C7.13585 14.202 7.47615 14.248 7.81812 14.25C8.2225 14.25 8.67688 14.1769 9.05188 13.9281C9.24175 13.8026 9.40156 13.6366 9.51986 13.4422C9.63817 13.2477 9.71206 13.0295 9.73625 12.8031C9.8125 12.2206 9.5825 11.7206 9.09437 11.3919V11.3931ZM13.5 9.2925C13.3125 9.22648 13.1065 9.23758 12.9272 9.32336C12.7479 9.40915 12.61 9.5626 12.5437 9.75L12 11.2688L11.4563 9.75C11.4269 9.65292 11.3781 9.56281 11.3129 9.48512C11.2477 9.40742 11.1675 9.34376 11.077 9.29797C10.9865 9.25219 10.8876 9.22523 10.7864 9.21874C10.6852 9.21224 10.5837 9.22634 10.4881 9.26018C10.3925 9.29403 10.3048 9.34691 10.2302 9.41564C10.1556 9.48436 10.0957 9.5675 10.0542 9.66003C10.0126 9.75255 9.9903 9.85254 9.98851 9.95394C9.98671 10.0553 10.0055 10.1561 10.0437 10.25L11.2937 13.75C11.3458 13.8956 11.4416 14.0216 11.568 14.1107C11.6945 14.1998 11.8453 14.2476 12 14.2476C12.1547 14.2476 12.3055 14.1998 12.432 14.1107C12.5584 14.0216 12.6542 13.8956 12.7063 13.75L13.9563 10.25C14.0227 10.0625 14.012 9.85633 13.9264 9.67676C13.8409 9.49719 13.6875 9.35897 13.5 9.2925ZM2.25 7.25V3C2.25 2.66848 2.3817 2.35054 2.61612 2.11612C2.85054 1.8817 3.16848 1.75 3.5 1.75H9.5C9.59852 1.74992 9.69609 1.76926 9.78714 1.8069C9.87818 1.84454 9.96092 1.89975 10.0306 1.96938L13.5306 5.46938C13.6003 5.53908 13.6555 5.62182 13.6931 5.71286C13.7307 5.80391 13.7501 5.90148 13.75 6V7.25C13.75 7.44891 13.671 7.63968 13.5303 7.78033C13.3897 7.92098 13.1989 8 13 8C12.8011 8 12.6103 7.92098 12.4697 7.78033C12.329 7.63968 12.25 7.44891 12.25 7.25V7H9.25C9.05109 7 8.86032 6.92098 8.71967 6.78033C8.57902 6.63968 8.5 6.44891 8.5 6.25V3.25H3.75V7.25C3.75 7.44891 3.67098 7.63968 3.53033 7.78033C3.38968 7.92098 3.19891 8 3 8C2.80109 8 2.61032 7.92098 2.46967 7.78033C2.32902 7.63968 2.25 7.44891 2.25 7.25ZM10 5.5H11.4375L10 4.0625V5.5Z" fill="#737373"/>
</svg>
