<svg width="34" height="34" viewBox="0 0 34 34" fill="none" xmlns="http://www.w3.org/2000/svg">
<path d="M32.988 33.5933C32.5165 33.4375 32.0266 33.3436 31.5306 33.3141C30.8621 33.2144 30.1936 33.148 29.5251 33.0948C26.7163 32.8766 23.8978 32.8078 21.0817 32.8887C17.6121 32.9685 17.9463 32.9286 14.4767 33.0084C11.9803 33.1685 9.47362 33.0144 7.01612 32.5497C5.97002 32.3017 4.98791 31.8381 4.13341 31.1888C3.27891 30.5396 2.57101 29.7191 2.05561 28.7806C1.38611 27.5326 1.03491 26.1402 1.03281 24.7257C0.920912 22.6725 1.48151 20.6387 2.63061 18.9292C3.99561 17.1717 5.83721 15.8387 7.93861 15.087C10.0293 14.2947 12.2167 13.7828 14.4433 13.5647C15.9423 13.3638 17.4507 13.2396 18.9625 13.1925L21.8304 13.126C19.1563 14.0699 16.3218 14.7214 13.6478 15.7451C11.2474 16.6036 9.11531 18.0727 7.46401 20.006C6.83281 20.7219 6.40921 21.5948 6.23851 22.5315C6.06771 23.4682 6.15632 24.4334 6.49462 25.324C6.82832 26.2934 7.44452 27.1422 8.26472 27.7625C9.08492 28.3827 10.0721 28.7464 11.1007 28.8072C17.0706 28.9269 22.2048 28.6676 28.188 28.8072C28.7095 28.8072 28.5022 22.3393 28.4956 21.7809C28.4554 18.7763 28.6293 15.6985 28.061 12.7404C27.7578 10.6962 26.8234 8.79606 25.3869 7.30286C23.4382 5.51686 20.8627 4.56216 18.2137 4.64386C17.3095 4.65886 16.4109 4.78836 15.5397 5.02946C14.1683 5.47266 12.8838 6.14726 11.7425 7.02366C11.4751 7.20976 9.01491 8.97136 9.17541 9.15076L6.34081 5.99996C6.12021 5.75396 11.074 2.67626 11.3882 2.48346C14.45 0.828258 15.7268 0.595558 19.1096 0.489258C20.737 0.496858 22.3544 0.743257 23.9095 1.22046C25.4729 1.73566 26.9261 2.53596 28.1947 3.58026C32.0655 6.83086 32.2058 12.2219 32.3596 16.8352C32.4732 19.6537 32.6537 22.4656 32.7473 25.2774C32.7941 26.7 32.8209 28.1225 32.8008 29.5451C32.7279 30.8973 32.7906 32.2534 32.988 33.5933Z" fill="url(#paint0_linear_6247_549)"/>
<path d="M32.3062 33.8661C26.8344 33.3422 21.3324 33.2001 15.8406 33.4406C13.2668 33.5536 10.6663 33.7531 8.13933 33.2745C5.61233 32.7958 3.10533 31.5461 1.74823 29.3724C1.31193 28.6666 0.995724 27.894 0.812324 27.0857C0.626624 26.2679 0.536925 25.4314 0.544925 24.593C0.559225 23.7441 0.637426 22.8975 0.778926 22.0603C0.846726 21.8727 0.895925 21.679 0.926025 21.482C0.928725 21.3639 0.958427 21.2479 1.01293 21.143C1.10333 20.7537 1.22853 20.3733 1.38723 20.0062C1.76073 19.3294 2.20923 18.6962 2.72433 18.1184C3.24023 17.5343 3.80862 16.9981 4.42232 16.5164C5.05312 16.0331 5.72412 15.6039 6.42792 15.2334L6.99613 14.9409C9.80673 13.7008 12.8283 13.0015 15.9008 12.8802C18.9559 12.6742 22.0311 12.7473 25.0862 12.508C20.3397 14.5953 14.9114 15.1071 10.5459 17.9057C8.61392 19.1421 6.85572 21.0034 6.68862 23.2834C6.63052 24.193 6.83823 25.0998 7.28653 25.8948C7.73493 26.6897 8.40482 27.3387 9.21562 27.7638C10.489 28.2655 11.8617 28.468 13.2267 28.3554L27.8873 28.2357C28.0478 24.4866 28.0344 20.7375 27.8873 16.9883C27.7804 13.9438 27.5196 10.68 25.5943 8.29347C23.669 5.90707 20.2462 4.81687 17.1643 5.27557C14.0571 5.84997 11.242 7.46657 9.18883 9.85567L6.12703 6.55187C6.04573 6.48297 5.98033 6.39737 5.93533 6.30107C5.89033 6.20467 5.86683 6.09977 5.86632 5.99347C5.90942 5.84777 6.00143 5.72107 6.12703 5.63457C10.6128 1.22067 17.3715 -1.11923 23.4684 0.529371C25.5918 1.06897 27.5324 2.16107 29.0907 3.69347C30.7656 5.53707 31.8947 7.80557 32.353 10.2479C32.8035 12.6773 33.0273 15.1428 33.0215 17.6132L33.4962 33.9857C33.1018 33.9392 32.7007 33.8993 32.3062 33.8661ZM23.1408 32.3239C25.3469 32.3239 27.5063 32.4103 29.5653 32.5765C30.3675 32.643 31.016 32.7161 31.611 32.8025H31.7313L32.3998 32.8889C32.3145 31.9186 32.2921 30.9439 32.333 29.9707V29.5652C32.333 28.0164 32.333 26.4808 32.2862 25.3242C32.2327 23.782 32.1525 22.2132 32.0789 20.671C32.0121 19.4013 31.9452 18.1317 31.8984 16.862V16.543C31.7246 12.0759 31.5307 7.01057 27.9274 3.98597C26.7167 2.98477 25.3294 2.21607 23.8361 1.71927C22.3188 1.25917 20.7427 1.01957 19.1565 1.00797C15.8607 1.08777 14.6908 1.28047 11.6691 2.91577C11.2613 3.13517 8.02563 5.18917 7.06303 5.96687L9.18883 8.34007C9.91563 7.71497 10.6791 7.13347 11.4752 6.59837C12.661 5.67387 14.0004 4.96297 15.4328 4.49787C16.334 4.24387 17.264 4.10537 18.2005 4.08567C20.9867 4.02367 23.689 5.03607 25.7414 6.91087C27.2638 8.46997 28.2493 10.4693 28.5558 12.621C28.9257 14.9619 29.0734 17.3321 28.9971 19.7005C28.9971 20.3652 28.9971 21.0765 28.9971 21.7545V22.0337C29.1508 28.5615 28.8232 28.8872 28.5893 29.1265C28.4746 29.2372 28.3212 29.2992 28.1614 29.2993C25.2132 29.2461 22.4255 29.2993 19.7314 29.2993C17.0373 29.2993 14.1025 29.3791 11.0406 29.2993C9.90243 29.2393 8.80842 28.841 7.90033 28.156C6.99213 27.471 6.31153 26.5309 5.94653 25.4571C5.58033 24.4828 5.48512 23.4282 5.67092 22.4046C5.85682 21.3809 6.31693 20.4261 7.00283 19.6406C8.73353 17.6369 10.9694 16.1273 13.4807 15.2667C14.9983 14.6817 16.576 14.2164 18.1002 13.7643H18.2072C17.3715 13.7643 16.8701 13.8574 16.0545 13.9505C15.6467 13.9904 15.1587 14.0502 14.5169 14.11C12.3339 14.3153 10.1875 14.8048 8.13263 15.5658C6.12663 16.2842 4.36863 17.5573 3.06523 19.2352C1.99173 20.8459 1.46463 22.756 1.56103 24.686C1.56433 26.0169 1.89483 27.3268 2.52373 28.5016C3.00433 29.3758 3.66362 30.1403 4.45922 30.7459C5.25482 31.3516 6.16913 31.7849 7.14323 32.0181C9.56563 32.4752 12.0366 32.6249 14.4969 32.4635C16.2217 32.4236 17.0038 32.4169 17.786 32.4036C18.5682 32.3904 19.357 32.4036 21.1286 32.3438L23.1408 32.3239Z" fill="url(#paint1_linear_6247_549)"/>
<path d="M2.53049 20.1525L1.36729 20.0195C0.607693 21.8008 0.342195 23.7519 0.598495 25.6698L2.53049 20.1525Z" fill="url(#paint2_linear_6247_549)"/>
<defs>
<linearGradient id="paint0_linear_6247_549" x1="16.9999" y1="0" x2="16.9999" y2="33.9857" gradientUnits="userSpaceOnUse">
<stop stop-color="white"/>
<stop offset="1" stop-color="#3CAFAA"/>
</linearGradient>
<linearGradient id="paint1_linear_6247_549" x1="16.9999" y1="0" x2="16.9999" y2="33.9857" gradientUnits="userSpaceOnUse">
<stop stop-color="white"/>
<stop offset="1" stop-color="#3CAFAA"/>
</linearGradient>
<linearGradient id="paint2_linear_6247_549" x1="16.9999" y1="0" x2="16.9999" y2="33.9857" gradientUnits="userSpaceOnUse">
<stop stop-color="white"/>
<stop offset="1" stop-color="#3CAFAA"/>
</linearGradient>
</defs>
</svg>
