<svg width="48" height="49" viewBox="0 0 48 49" fill="none" xmlns="http://www.w3.org/2000/svg">
<circle cx="24" cy="24.5" r="24" fill="#B5E8F7"/>
<path d="M31.5 16.375H16.5C15.8038 16.375 15.1361 16.6516 14.6438 17.1438C14.1516 17.6361 13.875 18.3038 13.875 19V29.5C13.875 30.1962 14.1516 30.8639 14.6438 31.3562C15.1361 31.8484 15.8038 32.125 16.5 32.125H31.5C31.8447 32.125 32.1861 32.0571 32.5045 31.9252C32.823 31.7933 33.1124 31.5999 33.3562 31.3562C33.5999 31.1124 33.7933 30.823 33.9252 30.5045C34.0571 30.1861 34.125 29.8447 34.125 29.5V19C34.125 18.6553 34.0571 18.3139 33.9252 17.9955C33.7933 17.677 33.5999 17.3876 33.3562 17.1438C33.1124 16.9001 32.823 16.7067 32.5045 16.5748C32.1861 16.4429 31.8447 16.375 31.5 16.375ZM31.875 29.5C31.875 29.5995 31.8355 29.6948 31.7652 29.7652C31.6948 29.8355 31.5995 29.875 31.5 29.875H16.5C16.4005 29.875 16.3052 29.8355 16.2348 29.7652C16.1645 29.6948 16.125 29.5995 16.125 29.5V19C16.125 18.9005 16.1645 18.8052 16.2348 18.7348C16.3052 18.6645 16.4005 18.625 16.5 18.625H31.5C31.5995 18.625 31.6948 18.6645 31.7652 18.7348C31.8355 18.8052 31.875 18.9005 31.875 19V29.5ZM28.125 34.375C28.125 34.6734 28.0065 34.9595 27.7955 35.1705C27.5845 35.3815 27.2984 35.5 27 35.5H21C20.7016 35.5 20.4155 35.3815 20.2045 35.1705C19.9935 34.9595 19.875 34.6734 19.875 34.375C19.875 34.0766 19.9935 33.7905 20.2045 33.5795C20.4155 33.3685 20.7016 33.25 21 33.25H27C27.2984 33.25 27.5845 33.3685 27.7955 33.5795C28.0065 33.7905 28.125 34.0766 28.125 34.375ZM27.0459 22.7041C27.2573 22.9154 27.376 23.2021 27.376 23.5009C27.376 23.7998 27.2573 24.0865 27.0459 24.2978C26.8346 24.5092 26.5479 24.6279 26.2491 24.6279C25.9502 24.6279 25.6635 24.5092 25.4522 24.2978L25.125 23.9688V27.25C25.125 27.5484 25.0065 27.8345 24.7955 28.0455C24.5845 28.2565 24.2984 28.375 24 28.375C23.7016 28.375 23.4155 28.2565 23.2045 28.0455C22.9935 27.8345 22.875 27.5484 22.875 27.25V23.9688L22.5459 24.2987C22.3346 24.5101 22.0479 24.6288 21.7491 24.6288C21.4502 24.6288 21.1635 24.5101 20.9522 24.2987C20.7408 24.0874 20.6221 23.8008 20.6221 23.5019C20.6221 23.203 20.7408 22.9163 20.9522 22.705L23.2022 20.455C23.3067 20.3501 23.4309 20.2669 23.5676 20.2101C23.7044 20.1533 23.851 20.1241 23.9991 20.1241C24.1471 20.1241 24.2937 20.1533 24.4305 20.2101C24.5672 20.2669 24.6914 20.3501 24.7959 20.455L27.0459 22.7041Z" fill="#004A68"/>
</svg>
